<svg id="Layer_1" data-name="Layer 1" xmlns="http://www.w3.org/2000/svg" width="500" height="500" viewBox="0 0 500 500"><defs><style>.cls-1{fill:#fff;}</style></defs><polygon class="cls-1" points="388.48 113.52 388.46 113.56 388.46 113.52 388.48 113.52"/><path class="cls-1" d="M427.55,331.26A195.2481,195.2481,0,0,1,54.89,243.39c3.48-104.76,89.5-188.61,195.1-188.61.01,0,.01,0,.01.01V89.43c0,.01,0,.01-.01.01A160.5655,160.5655,0,0,0,89.53,244.65c-2.99,91.12,71.25,166.98,162.42,165.9a160.4952,160.4952,0,0,0,136.56-79.29h-.05V196.74h-.01l-25.03,47.17H326.19l-12.78-24.08c-6.39-12.03-12.77-24.07-12.78-24.08V388.48a82.2,82.2,0,0,1-38.82,9.97l-.16-9.97V54.79c0-.01,0-.01.01-.01h38.96c.01,0,.01,0,.01.01v.73a229.1321,229.1321,0,0,0,26.72,107.39l17.46,32.9,43.65-82.25.02-.04h38.95c.01,0,.01,0,.01.01V331.26Z"/></svg>