<?xml version="1.0" encoding="utf-8"?>
<!-- Generator: Adobe Illustrator 26.0.2, SVG Export Plug-In . SVG Version: 6.00 Build 0)  -->
<svg version="1.1" id="Layer_1" xmlns="http://www.w3.org/2000/svg" xmlns:xlink="http://www.w3.org/1999/xlink" x="0px" y="0px"
	 viewBox="0 0 272 272" style="enable-background:new 0 0 272 272;" xml:space="preserve">
<style type="text/css">
	.st0{fill:#FFFFFF;}
</style>
<g>
	<path class="st0" d="M161,4.3l81.7-0.1l-137,136.9L70,176.7L29.3,136L161,4.3z M160.2,126.6c1.1-1.4,3-0.7,4.5-0.9l77.9,0l-71,70.9
		L130.8,156L160.2,126.6z"/>
	<path class="st0" d="M90.1,196.7l40.7-40.7l40.8,40.6l0.2,0.2l-41,40.6L90.1,196.7L90.1,196.7z"/>
	<path class="st0" d="M130.8,237.4l41-40.6l70.8,70.9c-26.7,0.1-53.4,0-80,0c-1.5,0.3-2.5-1-3.4-1.9L130.8,237.4L130.8,237.4z"/>
</g>
</svg>
