<svg id="Layer_1" data-name="Layer 1" xmlns="http://www.w3.org/2000/svg" width="323.0005" height="120.333" viewBox="0 0 323.0005 120.333"><defs><style>.cls-1{fill:#fff;}</style></defs><path class="cls-1" d="M81.2738,291.333a11.4845,11.4845,0,0,1-8.2218-3.223,10.8923,10.8923,0,0,1,0-15.785,11.9769,11.9769,0,0,1,16.5243,0,10.7187,10.7187,0,0,1,0,15.785A11.5854,11.5854,0,0,1,81.2738,291.333Z" transform="translate(-69.6665 -171)"/><path class="cls-1" d="M210.167,289.515H189.209l-55.215-87.109a38.9772,38.9772,0,0,1-3.466-6.86h-.484q.645,3.8025.645,16.281v77.688h-18.54V171h22.328l53.362,85.043q3.3855,5.29,4.353,7.273h.322a107.9874,107.9874,0,0,1-.806-15.951V171h18.459Z" transform="translate(-69.6665 -171)"/><path class="cls-1" d="M300.449,289.515H235.561V171H297.87v16.695H254.746v33.554h39.739v16.612H254.746v35.042h45.703Z" transform="translate(-69.6665 -171)"/><path class="cls-1" d="M392.667,187.695h-33.21v101.82H340.272V187.695H307.143V171h85.524Z" transform="translate(-69.6665 -171)"/></svg>