<svg id="Layer_1" data-name="Layer 1" xmlns="http://www.w3.org/2000/svg" xmlns:xlink="http://www.w3.org/1999/xlink" width="500" height="500" viewBox="0 0 500 500"><defs><style>.cls-1{fill:url(#linear-gradient);}.cls-2{fill:url(#linear-gradient-2);}.cls-3{fill:#17092d;}.cls-4,.cls-5{fill:none;stroke:#e31fe8;stroke-miterlimit:10;}.cls-4{stroke-width:1.1841px;}.cls-5{stroke-width:1.1291px;}</style><linearGradient id="linear-gradient" x1="250" y1="250" x2="250" gradientUnits="userSpaceOnUse"><stop offset="0" stop-color="#096197"/><stop offset="0.0311" stop-color="#09588b"/><stop offset="0.125" stop-color="#09406e"/><stop offset="0.2293" stop-color="#092d55"/><stop offset="0.3461" stop-color="#091e42"/><stop offset="0.4827" stop-color="#091335"/><stop offset="0.6573" stop-color="#090d2d"/><stop offset="1" stop-color="#090b2b"/></linearGradient><linearGradient id="linear-gradient-2" x1="250" y1="260.5518" x2="250" y2="79.2218" gradientUnits="userSpaceOnUse"><stop offset="0" stop-color="#f0f"/><stop offset="1" stop-color="#ffd400"/></linearGradient></defs><rect class="cls-1" width="500" height="250"/><path class="cls-2" d="M208.72,250.6318h82.56a90.849,90.849,0,0,1-82.56,0Zm-10.78-6.52H302.06a89.5873,89.5873,0,0,0,11.56-9.63H186.38A89.5873,89.5873,0,0,0,197.94,244.1118Zm-17.56-16.15H319.62a88.8708,88.8708,0,0,0,7.03-9.63H173.35A88.8708,88.8708,0,0,0,180.38,227.9618Zm-10.79-16.15H330.41a86.7864,86.7864,0,0,0,4.33-9.63H165.26A86.7864,86.7864,0,0,0,169.59,211.8118Zm-6.53-16.14H336.94a85.43,85.43,0,0,0,2.29-9.63H160.77A85.43,85.43,0,0,0,163.06,195.6718ZM250,79.2218a90.68,90.68,0,0,0-90.44,84.15H340.44A90.68,90.68,0,0,0,250,79.2218Zm-90.67,90.67a90.1008,90.1008,0,0,0,.51,9.63H340.16a90.1008,90.1008,0,0,0,.51-9.63Z"/><rect class="cls-3" y="250" width="500" height="250"/><path d="M0,172.3333s30.1111,36.8889,56.7778,36.8889,32.4444-13.55,44.8889-13.55,25.4766,42.0717,42.0716,42.0717S182.1111,250,182.1111,250H0Z"/><path d="M500,172.3333H451.2963c-14.8148,0-22.5185,34.6635-40.2963,34.6635s-22.5185,20.965-45.037,20.965S339.23,250,339.23,250H500Z"/><line class="cls-4" x1="383.4412" y1="250.1573" x2="1104.2226" y2="805.0726"/><line class="cls-4" x1="359.2874" y1="250.1573" x2="949.448" y2="805.0726"/><line class="cls-4" x1="335.1337" y1="250.1573" x2="794.6734" y2="805.0727"/><line class="cls-4" x1="310.9799" y1="250.1573" x2="639.8988" y2="805.0727"/><line class="cls-4" x1="286.8262" y1="250.1573" x2="485.1242" y2="805.0727"/><line class="cls-4" x1="262.6725" y1="250.1573" x2="330.3496" y2="805.0727"/><line class="cls-4" x1="238.5187" y1="250.1573" x2="175.575" y2="805.0727"/><line class="cls-4" x1="214.365" y1="250.1573" x2="20.8004" y2="805.0727"/><line class="cls-4" x1="190.2113" y1="250.1573" x2="-133.9742" y2="805.0727"/><line class="cls-4" x1="166.0575" y1="250.1573" x2="-288.7488" y2="805.0727"/><line class="cls-4" x1="141.9038" y1="250.1573" x2="-443.5234" y2="805.0727"/><line class="cls-4" x1="117.75" y1="250.1573" x2="-598.298" y2="805.0727"/><line class="cls-4" x1="94.5251" y1="250.1573" x2="-747.1206" y2="805.0726"/><line class="cls-4" x1="70.3714" y1="250.1573" x2="-901.8952" y2="805.0726"/><line class="cls-4" x1="46.2177" y1="250.1573" x2="-1056.6698" y2="805.0727"/><line class="cls-4" x1="22.0639" y1="250.1573" x2="-1211.4444" y2="805.0727"/><line class="cls-4" x1="479.1563" y1="250.1573" x2="1717.5554" y2="805.0727"/><line class="cls-4" x1="455.0026" y1="250.1573" x2="1562.7808" y2="805.0727"/><line class="cls-4" x1="430.8489" y1="250.1573" x2="1408.0062" y2="805.0727"/><line class="cls-4" x1="406.6951" y1="250.1573" x2="1253.2316" y2="805.0727"/><line class="cls-5" x1="-2.6059" y1="250" x2="501.1162" y2="250"/><line class="cls-5" x1="-12.2297" y1="253.9009" x2="510.6713" y2="253.9009"/><line class="cls-5" x1="-22.6153" y1="258.1106" x2="520.9827" y2="258.1106"/><line class="cls-5" x1="-33.857" y1="262.6673" x2="532.1441" y2="262.6673"/><line class="cls-5" x1="-46.0652" y1="267.6157" x2="544.265" y2="267.6157"/><line class="cls-5" x1="-59.3699" y1="273.0086" x2="557.4747" y2="273.0086"/><line class="cls-5" x1="-73.9261" y1="278.9087" x2="571.9268" y2="278.9088"/><line class="cls-5" x1="-89.9188" y1="285.3912" x2="587.8053" y2="285.3912"/><line class="cls-5" x1="-107.5719" y1="292.5467" x2="605.3322" y2="292.5467"/><line class="cls-5" x1="-127.158" y1="300.4857" x2="624.7784" y2="300.4857"/><line class="cls-5" x1="-149.0131" y1="309.3443" x2="646.4774" y2="309.3444"/><line class="cls-5" x1="-173.5557" y1="319.2924" x2="670.8446" y2="319.2924"/><line class="cls-5" x1="-201.7922" y1="330.7378" x2="698.8797" y2="330.7378"/><line class="cls-5" x1="-233.5118" y1="343.5949" x2="730.3727" y2="343.595"/><line class="cls-5" x1="-270.0199" y1="358.393" x2="766.6199" y2="358.3931"/><line class="cls-5" x1="-312.4894" y1="375.6075" x2="808.786" y2="375.6076"/><line class="cls-5" x1="-362.5101" y1="395.8828" x2="858.4493" y2="395.8828"/><line class="cls-5" x1="-422.2925" y1="420.1149" x2="917.8047" y2="420.1149"/><line class="cls-5" x1="-495.0033" y1="449.5873" x2="989.996" y2="449.5874"/><line class="cls-5" x1="-585.3446" y1="486.206" x2="1079.6919" y2="486.2061"/></svg>